<svg width="40" height="40" fill="none" xmlns="http://www.w3.org/2000/svg"><path d="M18.105.087c-1.548.148-3.527.594-4.965 1.118-1.119.414-3.144 1.43-4.106 2.057a20.15 20.15 0 0 0-6.968 7.882C1.073 13.177.518 14.921.182 17.087c-.243 1.564-.243 4.301 0 5.865a20.444 20.444 0 0 0 3.863 9.173c.696.93 2.362 2.651 3.308 3.418 1.634 1.329 3.925 2.627 5.834 3.3 2.29.813 4.3 1.157 6.795 1.157 1.979 0 3.12-.14 4.895-.587 1.533-.39 2.448-.735 3.98-1.485C31 36.88 32.62 35.69 34.333 33.924c1.603-1.65 2.58-3.034 3.597-5.107.907-1.837 1.47-3.573 1.79-5.513.673-4.035.087-8.21-1.665-11.847-.336-.696-.61-1.165-.75-1.275-.822-.649-1.995-.101-1.995.93 0 .274.102.572.423 1.252 1.235 2.604 1.72 4.747 1.72 7.578.008 1.697-.07 2.44-.391 3.894-1.587 7.124-7.437 12.489-14.733 13.505-1.29.18-3.503.164-4.833-.039-5.005-.735-9.376-3.535-12.168-7.789-1.04-1.595-1.994-3.863-2.393-5.7-.54-2.518-.531-5.373.047-7.781.97-4.09 3.261-7.578 6.64-10.088 2.299-1.713 4.95-2.8 7.937-3.261 1.228-.188 3.683-.188 4.927.008a17.784 17.784 0 0 1 7.256 2.791c.923.61 1.205.696 1.697.5.837-.312 1.087-1.29.5-1.946-.25-.29-1.313-1.001-2.298-1.54C26.129.563 22.023-.29 18.105.085Z" fill="currentColor"/><path d="M33.378 6.491c-.462.274-.704.845-.571 1.337.11.391.555.962.884 1.119.977.461 2.04-.383 1.767-1.4-.102-.368-.54-.93-.852-1.095-.321-.164-.923-.148-1.228.04Zm-16.289 4.207c-.149.086-.352.29-.446.454l-.18.305v8.406h-1.196c-1.087 0-1.228.016-1.54.172-.478.243-.72.673-.681 1.181.039.423.21.712.602.97.242.172.336.18 1.533.18h1.282v1.486h-1.196c-1.087 0-1.228.015-1.54.172-.478.242-.72.672-.681 1.18.039.423.21.712.602.97.242.172.336.18 1.533.18h1.282v1.103c0 1.259.078 1.525.54 1.837.555.376 1.321.212 1.76-.383.148-.195.163-.352.187-1.392l.023-1.165h2.91c2.588-.008 2.932-.023 3.159-.14.406-.22.594-.532.633-1.025.031-.485-.133-.821-.555-1.134-.22-.156-.32-.164-3.19-.188l-2.965-.023v-1.478h1.392c1.11 0 1.51-.031 2.034-.157a5.888 5.888 0 0 0 3.878-3.065c.5-1.017.626-1.548.626-2.682s-.117-1.658-.626-2.698c-.312-.626-.477-.845-1.079-1.447-.805-.797-1.314-1.126-2.291-1.478l-.688-.242-2.424-.024c-2.253-.023-2.44-.008-2.698.125Zm5.411 2.698c2.776 1.369 2.463 5.396-.492 6.319-.384.117-.72.148-1.76.148h-1.283v-6.819l1.47.032 1.47.023.595.297Z" fill="currentColor"/></svg>