<svg width="72" height="61" viewBox="0 0 72 61" fill="none" xmlns="http://www.w3.org/2000/svg">
<path d="M57.7476 0.955463C57.649 0.997372 57.3815 1.37453 57.142 1.79359C56.9026 2.21265 56.6209 2.5479 56.5223 2.5479C56.4097 2.5479 56.0576 2.45012 55.7196 2.32441C55.0154 2.07297 53.1845 2.01709 52.6352 2.24059C52.3676 2.33837 52.1705 2.32441 51.931 2.18472C51.2269 1.80756 50.072 1.98915 49.4101 2.58981C49.227 2.75743 47.889 4.65719 46.4384 6.80838C38.7769 18.151 37.8614 19.1288 34.7207 19.2825C33.256 19.3523 33.0025 19.3104 22.5665 16.7821C14.5388 14.8265 14.4261 14.8125 13.6374 15.483C13.3839 15.6925 13.0459 15.8182 12.7501 15.8182C11.4122 15.8182 9.94747 16.6424 9.2292 17.7878C8.98977 18.165 8.77852 18.4723 8.76443 18.4723C8.75035 18.4723 8.39826 18.2907 7.97575 18.0533C7.11664 17.5783 6.70821 17.5364 6.42654 17.8577C6.08853 18.2628 0.0888593 29.4238 0.0184407 29.787C-0.0942291 30.2759 0.257864 30.5553 2.52534 31.7287L4.45481 32.7344L6.15894 27.5241C7.10255 24.6605 8.03208 21.8109 8.22925 21.1962C8.42642 20.5816 8.67993 19.967 8.80669 19.8273C9.08836 19.52 9.58129 19.52 10.5672 19.8552C11.5389 20.1905 11.7079 20.0508 10.8629 19.6038L10.2432 19.2685L10.5672 18.7238C10.9052 18.1091 11.891 17.4526 12.3699 17.5224C12.7924 17.5783 13.1445 18.5701 12.8487 18.8914C12.6656 19.0869 12.2431 19.967 12.0319 20.5956C11.9474 20.8191 11.891 20.8191 11.1446 20.5676C10.1446 20.2184 9.65171 20.2184 9.37003 20.5257C9.10244 20.8191 4.75057 34.0615 4.75057 34.5644C4.75057 34.7599 4.86324 35.0114 5.00408 35.1231C5.13083 35.2349 7.94758 36.1987 11.2713 37.2603L17.2851 39.202L17.6653 38.9226C17.9893 38.6851 18.3414 37.7073 20.2708 31.8125C21.4961 28.0549 22.4961 24.87 22.4961 24.7443C22.4961 24.3951 22.0595 24.0878 21.1018 23.7665C20.3272 23.5011 20.2286 23.4312 20.299 23.1658C20.3413 23.0122 20.4258 22.635 20.468 22.3417C20.5243 22.0623 20.5807 21.8248 20.6229 21.8248C20.6652 21.8248 30.8055 25.5266 31.5378 25.8059C31.7068 25.8758 31.9603 26.4345 32.2843 27.4403C33.3405 30.6531 33.594 32.3293 33.749 36.9111C33.8616 39.8865 33.932 40.6268 34.1715 41.3671C34.4391 42.2192 34.4391 42.4148 34.3123 44.6498C34.0588 48.9382 33.2983 53.2825 32.6927 53.8832C32.2561 54.3022 30.0168 54.0648 27.8479 53.3663C27.3409 53.2127 26.3128 52.8355 25.5522 52.5282C23.8763 51.8577 23.0876 51.8018 22.2144 52.2907C21.8623 52.4723 21.4116 52.9054 21.1722 53.2406C20.8201 53.7714 20.7497 53.9949 20.7497 54.7492C20.7497 56.3137 21.4539 56.9703 24.6509 58.3951C30.5238 61.0212 34.9602 60.9653 37.6079 58.2135C39.1149 56.663 40.5373 53.1847 41.5091 48.7846C41.664 48.0582 41.8189 47.3178 41.8612 47.1363C41.9316 46.8708 42.0302 46.8289 42.5372 46.8289H43.1428L43.7202 48.1141C44.4103 49.6367 44.8892 50.838 44.8892 51.0196C44.8892 51.0755 44.6779 51.271 44.4103 51.4386C43.7907 51.8018 43.1991 52.9473 43.1991 53.7575C43.1991 54.6515 44.2695 56.663 45.2835 57.6827C47.72 60.1272 51.1283 60.0853 52.255 57.5849C52.6634 56.6769 52.7479 53.6317 52.424 51.4386C52.1001 49.2316 51.1283 45.5298 50.1706 42.8478C49.4101 40.7106 49.3678 40.543 49.3256 39.0064C49.1425 33.4468 47.2834 25.6802 45.1145 21.4337L44.7343 20.6934L46.6637 17.1034C49.5227 11.7673 49.396 11.9768 49.6495 12.2422C49.8467 12.4238 49.8185 12.5076 49.3537 13.0105C48.6073 13.8207 48.4946 14.1001 48.72 14.4493C49.0298 14.9103 61.7756 22.5233 62.2403 22.5233C62.4516 22.5233 62.7755 22.3836 62.9727 22.202C63.8881 21.3918 70.9441 13.0664 70.9441 12.801C70.9441 12.6473 70.8314 12.4099 70.7047 12.2981C70.5638 12.1864 67.6062 10.3704 64.1135 8.2751C59.2123 5.32769 57.6631 4.46163 57.2969 4.46163C56.8885 4.44766 56.7195 4.55941 56.0998 5.24388L55.3816 6.0401L54.959 5.76072C54.7337 5.60707 54.2267 5.38357 53.8605 5.25785L53.1845 5.03435L53.2267 4.32194L53.269 3.59556L53.9591 3.55366C54.3675 3.52572 54.9168 3.60953 55.2689 3.73525L55.8745 3.97272L55.5787 4.53147C55.4238 4.83878 55.3111 5.11816 55.3534 5.1461C55.3816 5.17403 55.7337 4.85275 56.128 4.41972C56.804 3.69334 56.9026 3.63747 57.3815 3.69334C57.7758 3.72128 59.4518 4.65719 63.7895 7.28332C67.0147 9.22498 69.7047 10.8314 69.761 10.8454C69.8033 10.8454 70.3526 9.99327 70.9722 8.91767C72.1834 6.83632 72.2539 6.51504 71.5497 6.19376C70.1976 5.57913 58.6067 0.997372 58.2969 0.941494C58.0856 0.913559 57.8462 0.913559 57.7476 0.955463ZM53.6633 6.96204C53.945 7.10173 54.1844 7.26935 54.1844 7.32523C54.1844 7.39507 53.4803 8.26114 52.6212 9.25292L51.0579 11.0549L50.6494 10.8454C50.4241 10.7336 50.241 10.6079 50.241 10.566C50.241 10.5101 50.7198 9.5742 51.3114 8.48464C52.5085 6.24963 52.3676 6.34741 53.6633 6.96204ZM16.8344 20.4279C18.6794 21.0984 18.8343 21.1823 18.8343 21.5175C18.8343 22.0623 18.5245 22.9563 18.3554 22.9004C18.2709 22.8725 17.1865 22.5093 15.9471 22.1042C14.7078 21.6991 13.6797 21.3499 13.6515 21.3359C13.5811 21.28 14.0177 20.2743 14.2712 19.8971C14.3979 19.7155 14.5669 19.5898 14.6514 19.6317C14.75 19.6597 15.7218 20.0229 16.8344 20.4279Z" fill="white"/>
<path d="M30.9885 2.61773C29.1012 3.1206 27.0028 4.75495 26.1155 6.41724C25.6226 7.33918 25.1719 9.08527 25.1719 10.091C25.1719 11.0968 25.6226 12.8429 26.1155 13.7648C26.6647 14.7985 28.2985 16.3909 29.3266 16.8938C32.4391 18.4444 35.9882 17.9135 38.4106 15.5389C39.9598 14.0163 40.6781 12.2981 40.6781 10.105C40.6921 7.92587 39.9739 6.19374 38.3965 4.62923C37.3684 3.60951 35.9741 2.84123 34.6361 2.56185C33.6221 2.35232 31.8757 2.38026 30.9885 2.61773Z" fill="white"/>
</svg>
