<svg width="60" height="61" viewBox="0 0 60 61" fill="none" xmlns="http://www.w3.org/2000/svg">
<circle cx="30" cy="30.322" r="30" fill="white"/>
<path d="M19.9761 21.7616V30.0832H18.2435C17.2853 30.0832 16.34 30.0961 16.1435 30.0961L15.7761 30.1089V31.9463V33.7836H17.8761H19.9761V35.4899V37.1963H17.8761H15.7761V39.0336V40.8709H17.8761H19.9761V43.9554V47.0417H21.8135H23.6508V43.9573V40.8728H32.6416H41.6324V39.0354V37.1981H32.6422H23.6514V35.5046V33.7983L29.9257 33.7456C36.9083 33.693 36.8036 33.7065 38.8381 32.722C40.9773 31.6983 42.8153 29.8603 43.8653 27.6948C45.7026 23.9014 44.9024 19.6095 41.7653 16.4859C40.3608 15.0685 38.7989 14.1759 36.9218 13.6898C36.0163 13.4534 35.3992 13.4406 27.9573 13.4406H19.9761V21.7616ZM37.1049 17.4826C38.7849 18.1126 40.0975 19.3861 40.7275 21.0263C41.1347 22.0634 41.2265 24.3734 40.9112 25.4626C40.2555 27.7206 38.8773 29.0987 36.5802 29.7948C35.8712 30.0177 35.202 30.044 29.7549 30.044H23.7169L23.6777 23.5732L23.6514 17.1024L29.9777 17.1416C36.1994 17.1808 36.331 17.1808 37.1049 17.4826Z" fill="#0D5DA2"/>
</svg>
