<svg width="63" height="67" viewBox="0 0 63 67" fill="none" xmlns="http://www.w3.org/2000/svg">
<path d="M31.745 0.517994C25.2088 1.40384 21.6964 4.94724 20.7589 11.5977C20.64 12.4968 20.5212 14.4932 20.4816 16.7674C20.4156 20.1653 20.442 20.6016 20.6929 22.056C21.4191 26.0886 23.0301 29.2221 25.7898 31.9722C28.5627 34.7355 32.4317 36.6659 35.2442 36.6659C38.0172 36.6659 41.9917 34.7355 44.6986 32.078C47.7357 29.0899 49.4259 25.573 50.0333 20.9983C50.1389 20.1918 50.1653 18.7638 50.1125 16.569C49.954 10.659 49.3995 8.08076 47.6961 5.50254C46.1115 3.12265 43.7083 1.5625 40.5128 0.835316C38.1096 0.30645 34.3067 0.161011 31.745 0.517994ZM37.0136 6.32228C37.8455 6.40162 40.1167 6.89081 40.1167 6.99659C40.1167 7.1288 39.166 9.50869 39.0735 9.58802C39.0207 9.65413 38.4265 9.5748 37.7399 9.42937C36.1421 9.07238 34.1086 9.07238 32.6561 9.42937C32.0751 9.56158 31.5602 9.64091 31.5206 9.58802C31.4677 9.53514 31.2433 8.99305 31.0056 8.37164C30.7679 7.75022 30.5566 7.18169 30.517 7.10236C30.4906 7.02303 30.5962 6.91726 30.7679 6.87759C30.9396 6.85115 31.5206 6.71893 32.0619 6.58672C33.1711 6.33551 35.0594 6.1504 35.7592 6.20329C36.0101 6.22973 36.5779 6.28262 37.0136 6.32228ZM38.004 13.343C40.1959 13.7396 42.0577 14.718 44.5138 16.7674C45.2268 17.3756 45.6494 17.6268 45.9003 17.6268C46.3888 17.6268 47.2603 16.9657 47.5772 16.3707C47.7225 16.1195 47.8941 15.908 47.9602 15.908C48.145 15.908 47.947 20.5355 47.7093 21.8445C46.8246 26.8026 43.6951 31.0864 39.364 33.2812C36.8948 34.5108 35.297 34.7355 33.2503 34.0877C29.5663 32.9242 26.0011 29.7774 24.2713 26.1547C23.0697 23.6294 22.383 19.8083 22.6339 17.0186L22.7264 16.0534L23.0829 16.5558C23.5846 17.2433 24.1524 17.6268 24.6938 17.6268C25.0371 17.6268 25.3541 17.4284 26.252 16.688C26.8726 16.1592 27.7045 15.5245 28.1006 15.2469C30.8999 13.343 34.3067 12.6951 38.004 13.343Z" fill="white"/>
<path d="M25.5784 35.3172C22.9903 36.6923 22.0264 37.2343 22.0264 37.3005C22.0264 37.3533 22.4885 37.6574 23.0431 37.988C24.324 38.7416 27.0177 41.3198 27.9552 42.6817C28.8795 44.017 29.751 45.9077 30.1735 47.4679C30.5037 48.6843 30.5301 48.9355 30.5301 51.7385C30.5301 54.5547 30.5037 54.7794 30.1735 56.0355C29.7378 57.6485 28.6286 59.9491 27.6911 61.1919C27.3082 61.6943 26.5291 62.567 25.9745 63.1355L24.971 64.1403L25.5124 64.2197C29.6058 64.8146 36.2872 64.9601 41.7011 64.5502C49.3333 63.9949 55.2621 62.3554 59.3291 59.6979C60.5571 58.8781 62.1416 57.2783 62.617 56.3528L62.9999 55.6124L62.6434 53.801C61.7455 49.2792 60.3326 45.5507 58.7613 43.6072C58.4048 43.1576 57.7313 42.5494 57.2164 42.1925C55.9487 41.3595 52.5288 39.4159 48.0128 36.9699C45.0154 35.3437 44.1703 34.947 43.9194 35.0131C43.7478 35.066 43.2592 35.3701 42.8235 35.6742C41.7275 36.4543 40.3278 37.1286 38.8489 37.6045C38.0038 37.8822 37.5417 38.107 37.4096 38.2921C37.3172 38.4507 36.8022 39.7332 36.274 41.1347L35.3101 43.6865L34.8743 42.523C33.5803 39.0721 33.2106 38.2392 32.9465 38.0541C32.788 37.9483 32.1146 37.6971 31.4412 37.4723C29.9887 36.9964 29.3153 36.6658 27.8363 35.6874C27.2289 35.2775 26.6215 34.947 26.5027 34.947C26.3839 34.947 25.9613 35.1189 25.5784 35.3172Z" fill="white"/>
<path d="M12.5852 37.1948C3.42129 38.6227 -2.17742 47.8514 0.806797 56.5645C1.77073 59.3675 3.97588 62.2365 6.43191 63.9025C7.65993 64.7222 9.56138 65.5816 11.0271 65.9783C12.1891 66.2956 12.5588 66.322 14.6319 66.322C16.7182 66.322 17.0747 66.2956 18.2631 65.9783C20.6928 65.3172 23.2544 63.8496 24.9974 62.1175C26.7272 60.3723 28.1929 57.8073 28.8532 55.3745C29.1701 54.1846 29.1965 53.8276 29.1965 51.7386C29.1965 49.6628 29.1701 49.2926 28.8532 48.1291C28.1533 45.4848 26.7668 43.1445 24.7994 41.2406C22.6867 39.2045 20.4419 38.0013 17.6029 37.3799C16.4805 37.1287 13.668 37.0361 12.5852 37.1948ZM17.3917 40.9101C21.3002 41.9017 24.4297 45.022 25.4728 48.962C25.8953 50.5354 25.8953 52.9285 25.4728 54.4887C24.9182 56.5777 24.1392 57.966 22.6338 59.5129C21.1021 61.0995 19.5044 62.025 17.352 62.6067C15.9656 62.977 13.4039 63.0034 12.1231 62.6596C7.92402 61.549 4.88699 58.5609 3.79101 54.449C3.39488 52.9682 3.39488 50.5222 3.79101 49.0281C5.40196 42.9726 11.41 39.3764 17.3917 40.9101Z" fill="white"/>
<path d="M16.5466 50.3501C14.3018 52.5713 12.4136 54.3827 12.3608 54.3827C12.3211 54.3827 11.4628 53.5233 10.4593 52.4787L8.63709 50.5616L7.44868 51.6987C6.78845 52.3333 6.24707 52.8886 6.24707 52.9415C6.24707 53.1266 12.1891 59.2747 12.3608 59.2747C12.4136 59.2614 14.8564 56.8948 17.801 53.986L23.1488 48.7106L21.9604 47.5206C21.3134 46.8596 20.7456 46.3175 20.706 46.3307C20.6664 46.3307 18.8046 48.1421 16.5466 50.3501Z" fill="white"/>
</svg>
