<?xml version="1.0" encoding="utf-8"?><svg viewBox="0 0 85 111" xmlns="http://www.w3.org/2000/svg" xmlns:xlink="http://www.w3.org/1999/xlink"><style>:root>svg{display:none}:root>svg:target{display:block}</style><svg fill="none" viewBox="0 0 43 34" id="blue-1" xmlns="http://www.w3.org/2000/svg"><path d="M28.137 19.686L0 33.297l42.436.634-14.299-14.245z" fill="#534D9A"/><path d="M42.436 33.93L24.916 0l3.221 19.686 14.3 14.245z" fill="#4979BC"/><path d="M0 33.297L24.917 0l3.22 19.686L0 33.297z" fill="#634F9A"/></svg><svg fill="none" viewBox="0 0 68 57" id="blue-2" xmlns="http://www.w3.org/2000/svg"><path d="M36.352 33.427L67.857.907 0 32.508l36.352.92z" fill="#534D9A"/><path d="M0 32.508L64.201 56.3l-27.85-22.873L0 32.508z" fill="#5DC1CE"/><path d="M67.857.907l-3.656 55.392-27.85-22.872L67.858.907z" fill="#48549F"/></svg><svg fill="none" viewBox="0 0 65 69" id="blue-3" xmlns="http://www.w3.org/2000/svg"><path d="M36.472 23.558l-2.988 45.18L64.788.744 36.472 23.558z" fill="#534D9A"/><path d="M64.788.744L.438 24.13l36.034-.573L64.788.744z" fill="#5DC1CE"/><path d="M33.484 68.738L.44 24.131l36.032-.573-2.988 45.18z" fill="#48549F"/></svg><svg fill="none" viewBox="0 0 72 61" id="client" xmlns="http://www.w3.org/2000/svg"><path d="M57.748.955c-.099.042-.366.42-.606.839s-.521.754-.62.754c-.112 0-.464-.098-.802-.224-.705-.251-2.535-.307-3.085-.083-.267.097-.465.083-.704-.056-.704-.377-1.859-.196-2.52.405-.184.167-1.522 2.067-2.973 4.218-7.661 11.343-8.577 12.32-11.717 12.474-1.465.07-1.718.028-12.154-2.5-8.028-1.956-8.14-1.97-8.93-1.299a1.46 1.46 0 01-.887.335c-1.338 0-2.803.824-3.52 1.97-.24.377-.451.684-.466.684-.014 0-.366-.181-.788-.419-.86-.475-1.268-.517-1.55-.195C6.09 18.263.09 29.424.019 29.787c-.112.489.24.768 2.507 1.942l1.93 1.005 1.704-5.21c.944-2.864 1.873-5.713 2.07-6.328.197-.614.45-1.229.578-1.369.281-.307.774-.307 1.76.028.972.335 1.14.196.296-.251l-.62-.335.324-.545c.338-.615 1.324-1.271 1.803-1.202.422.056.775 1.048.479 1.37-.183.195-.606 1.075-.817 1.704-.085.223-.141.223-.887-.028-1-.35-1.493-.35-1.775-.042-.268.293-4.62 13.536-4.62 14.038 0 .196.113.447.254.56.127.11 2.944 1.075 6.267 2.136l6.014 1.942.38-.28c.324-.237.676-1.215 2.606-7.11 1.225-3.757 2.225-6.942 2.225-7.068 0-.349-.436-.656-1.394-.977-.775-.266-.873-.336-.803-.601.042-.154.127-.531.169-.824.056-.28.113-.517.155-.517.042 0 10.182 3.702 10.915 3.98.169.07.422.63.746 1.635 1.056 3.213 1.31 4.89 1.465 9.471.113 2.975.183 3.716.422 4.456.268.852.268 1.048.141 3.283-.253 4.288-1.014 8.633-1.62 9.233-.436.42-2.675.182-4.844-.517a34.412 34.412 0 01-2.296-.838c-1.676-.67-2.464-.726-3.338-.237-.352.181-.802.614-1.042.95-.352.53-.422.754-.422 1.508 0 1.565.704 2.221 3.9 3.646 5.874 2.626 10.31 2.57 12.958-.181 1.507-1.551 2.93-5.03 3.901-9.43.155-.726.31-1.466.352-1.648.07-.265.17-.307.676-.307h.606l.577 1.285c.69 1.523 1.17 2.724 1.17 2.906 0 .055-.212.251-.48.419-.62.363-1.21 1.508-1.21 2.319 0 .893 1.07 2.905 2.083 3.925 2.437 2.444 5.845 2.402 6.972-.098.408-.908.493-3.953.169-6.146-.324-2.207-1.296-5.91-2.253-8.591-.76-2.137-.803-2.305-.845-3.842-.184-5.56-2.043-13.326-4.212-17.572l-.38-.74 1.93-3.59c2.859-5.337 2.732-5.127 2.986-4.862.197.182.169.266-.296.768-.747.81-.86 1.09-.634 1.44.31.46 13.056 8.073 13.52 8.073.212 0 .535-.14.733-.321.915-.81 7.971-9.136 7.971-9.401a.805.805 0 00-.24-.503c-.14-.112-3.098-1.928-6.59-4.023-4.902-2.947-6.45-3.813-6.817-3.813-.408-.014-.578.097-1.197.782l-.718.796-.423-.28c-.225-.153-.732-.376-1.099-.502l-.675-.224.042-.712.042-.726.69-.042c.408-.028.958.056 1.31.181l.605.238-.295.558c-.155.308-.268.587-.226.615.029.028.38-.293.775-.726.676-.727.775-.783 1.254-.727.394.028 2.07.964 6.407 3.59 3.226 1.942 5.916 3.548 5.972 3.562.042 0 .592-.852 1.211-1.927 1.211-2.082 1.282-2.403.578-2.724C70.198 5.579 58.607.997 58.297.94c-.211-.027-.45-.027-.55.014zm-4.085 6.007c.282.14.521.307.521.363 0 .07-.704.936-1.563 1.928l-1.563 1.802-.409-.21c-.225-.111-.408-.237-.408-.279 0-.056.479-.992 1.07-2.081 1.197-2.235 1.057-2.138 2.352-1.523zM16.834 20.428c1.845.67 2 .754 2 1.09 0 .544-.31 1.438-.479 1.382-.084-.027-1.169-.39-2.408-.796-1.24-.405-2.267-.754-2.295-.768-.07-.056.366-1.062.62-1.439.126-.181.295-.307.38-.265.098.028 1.07.39 2.182.796z" fill="#fff"/><path d="M30.988 2.618c-1.887.503-3.985 2.137-4.872 3.8-.493.921-.944 2.667-.944 3.673 0 1.006.45 2.752.944 3.674.549 1.034 2.183 2.626 3.21 3.129 3.113 1.55 6.662 1.02 9.085-1.355 1.549-1.523 2.267-3.24 2.267-5.434.014-2.18-.704-3.911-2.281-5.476-1.029-1.02-2.423-1.788-3.76-2.067-1.015-.21-2.761-.182-3.649.056z" fill="#fff"/></svg><svg fill="none" viewBox="0 0 14 14" id="close" xmlns="http://www.w3.org/2000/svg"><path d="M14 1.41L12.59 0 7 5.59 1.41 0 0 1.41 5.59 7 0 12.59 1.41 14 7 8.41 12.59 14 14 12.59 8.41 7 14 1.41z" fill="currentColor"/></svg><svg fill="none" viewBox="0 0 80 68" id="delivery" xmlns="http://www.w3.org/2000/svg"><path d="M52.755.257c-3.313.814-4.998 2.738-5.012 5.7 0 .66.099 1.052.422 1.754.266.576.42 1.11.42 1.517 0 .898.562 1.993 1.447 2.85 1.333 1.29 3.018 1.88 4.674 1.614 2.12-.323 3.201-1.67 4.324-5.363.281-.926.534-1.713.576-1.74.028-.043.716-.127 1.502-.197 1.642-.127 2.288-.31 2.751-.716.38-.351.393-.674.042-.997-.21-.196-.59-.239-2.035-.267l-1.769-.028-.35-.42c-.183-.24-.338-.478-.352-.534 0-.056-.224-.576-.491-1.137-.407-.87-.604-1.11-1.165-1.446-1.432-.885-3.047-1.067-4.984-.59zM.252 11.165c-.407.084-.295.674.154.842.66.253 4.338.52 12.592.94 3.819.197 6.683.38 11.723.773 2.512.196 7.075.463 8.142.477 1.39.014 1.656-.098 1.98-.87.153-.365.448-.87.63-1.123.197-.253.338-.59.31-.772l-.042-.31H18.122c-9.7 0-17.744.015-17.87.043z" fill="#fff"/><path d="M62.779 12.625c-.085.491-.183 1.937-.225 3.215l-.07 2.33.898.084c.492.042 1.11.056 1.376.028.253-.042 1.881-.266 3.622-.505 3.355-.463 4.633-.477 5.264-.07.45.294.744.758.857 1.32.126.631-.267.603-.955-.07-.716-.703-.407-.703-7.272.168-8.591 1.095-7.665 1.15-9.897-.534-3.088-2.344-3.945-2.962-5.756-4.183-2.358-1.6-3.088-1.867-4.983-1.867-1.236-.014-1.418.028-2.246.435-1.6.8-2.219 1.53-4.24 5.025-2.386 4.114-3.173 5.433-4.422 7.511-.73 1.193-1.474 2.4-1.657 2.667-.168.267-.688 1.053-1.137 1.755-.996 1.544-1.305 2.387-1.32 3.58 0 2.47 1.11 4.17 4.633 7.005a54.106 54.106 0 013.23 2.878c.884.856 1.866 1.755 2.175 1.98 1.207.884 2.148 1.768 2.316 2.19.169.378.14.617-.112 1.726a24.275 24.275 0 00-.435 2.4c-.154 1.306-.337 2.148-.632 3.005-.14.393-.252 1.361-.295 2.807-.056 1.208-.21 3.047-.379 4.086-.477 3.172-.266 4 1.123 4.337.365.099.885.225 1.152.295.266.056 1.403.253 2.526.407 1.124.169 2.724.407 3.552.52 1.825.28 3.004.21 3.271-.155.267-.365.239-1.165-.056-1.74-.267-.534-1.109-1.025-2.78-1.615a14.593 14.593 0 01-1.825-.828l-.828-.463-.042-.744c-.028-.421.112-1.587.309-2.597.196-1.011.477-2.696.646-3.735.435-2.807.828-4.703 1.263-6.05.73-2.204.899-4.015.491-5.012-.126-.28-.645-.968-1.179-1.502-.52-.548-1.67-1.81-2.54-2.808-.871-1.01-1.756-2.021-1.952-2.246-1.292-1.46-1.98-2.358-2.064-2.667-.154-.632.085-1.32.772-2.204.365-.491 1.446-1.965 2.401-3.271.955-1.32 2.386-3.215 3.173-4.212.8-1.01 1.642-2.077 1.88-2.4l.45-.562 1.713.857c2.751 1.375 3.818 1.755 5.04 1.755.575 0 1.67-.127 2.414-.281.744-.155 1.544-.281 1.769-.281.477 0 .463-.014.407 1.91-.014.715.014 1.473.07 1.712l.084.421 2.836.084c1.558.042 4.198.113 5.854.155 1.657.042 3.973.14 5.124.238 2.288.169 3.075.099 3.229-.28.056-.127.154-2.541.225-5.363.07-2.822.196-6.205.28-7.51.127-1.797.127-2.527 0-2.99l-.168-.59h-1.993c-1.096 0-4.367-.099-7.258-.211-2.892-.112-5.784-.21-6.402-.21h-1.151l-.154.87zM3.466 19.518c-.14.098-.238.308-.196.463.07.407.87.618 2.078.52.575-.043 2.316.027 3.86.154 1.544.112 6.668.435 11.371.716 4.717.266 8.83.52 9.153.561.337.028.688.028.8-.014.267-.098 1.348-1.797 1.348-2.091a.33.33 0 00-.168-.281c-.099-.028-6.43-.084-14.08-.14-11.653-.07-13.941-.057-14.166.112zM9.11 26.902c-.899.098-1.095.21-.8.491.196.197.673.239 11.076.716 2.428.112 5.124.253 5.994.295 1.46.084 1.587.07 1.994-.21.52-.366.744-.759.631-1.053-.07-.183-1.109-.211-8.591-.183-4.689.014-8.746-.014-9.013-.056-.266-.042-.856-.042-1.291 0z" fill="#fff"/><path d="M28.764 35.802c-.197.169-.66.87-1.011 1.572-1.11 2.106-1.657 2.906-1.98 2.822-.154-.028-1.067-.35-2.035-.702-.969-.35-2.611-.884-3.65-1.207-1.04-.323-2.373-.73-2.948-.913-.702-.21-1.6-.35-2.668-.42-.884-.043-1.993-.183-2.456-.296-2.4-.561-2.822-.098-3.355 3.735-.478 3.369-.702 6.106-.59 7.061.084.688.14.772.59.983.266.14.59.238.701.238.773 0 1.53-1.095 2.289-3.299.575-1.656.997-2.456 1.361-2.625.211-.098.492-.042 1.123.21.45.197 1.082.408 1.39.464 1.32.239 7.132 2.47 9.476 3.622 2.429 1.207 3.454 1.376 4.52.744 1.025-.604 1.685-1.502 3.131-4.282 1.151-2.19 1.207-1.937-.758-3.692-1.558-1.39-2.316-2.47-2.457-3.481-.056-.393-.14-.73-.196-.773-.07-.042-.281.07-.477.24z" fill="#fff"/></svg><svg fill="none" viewBox="0 0 14 20" id="geo" xmlns="http://www.w3.org/2000/svg"><path d="M7 4.5a2.5 2.5 0 110 5 2.5 2.5 0 010-5zM7 0a7 7 0 017 7c0 5.25-7 13-7 13S0 12.25 0 7a7 7 0 017-7zm0 2a5 5 0 00-5 5c0 1 0 3 5 9.71C12 10 12 8 12 7a5 5 0 00-5-5z" fill="#EB5F31"/></svg><svg fill="none" viewBox="0 0 69 80" id="green" xmlns="http://www.w3.org/2000/svg"><path d="M31.882 28.911L18.204 80 68.973.152l-37.091 28.76z" fill="#E9E593"/><path d="M68.973.152L.836 15.746 31.882 28.91 68.972.151z" fill="#59A665"/><path d="M18.204 80L.836 15.746 31.882 28.91 18.204 80z" fill="#005444"/></svg><svg fill="none" viewBox="0 0 20 16" id="mail" xmlns="http://www.w3.org/2000/svg"><path d="M18 4l-8 5-8-5V2l8 5 8-5v2zm0-4H2C.89 0 0 .89 0 2v12a2 2 0 002 2h16a2 2 0 002-2V2a2 2 0 00-2-2z" fill="currentColor"/></svg><svg fill="none" viewBox="0 0 18 18" id="phone" xmlns="http://www.w3.org/2000/svg"><path d="M3.62 7.79c1.44 2.83 3.76 5.15 6.59 6.59l2.2-2.2c.28-.28.67-.36 1.02-.25 1.12.37 2.32.57 3.57.57a1 1 0 011 1V17a1 1 0 01-1 1A17 17 0 010 1a1 1 0 011-1h3.5a1 1 0 011 1c0 1.25.2 2.45.57 3.57.11.35.03.74-.25 1.02l-2.2 2.2z" fill="currentColor"/></svg><svg fill="none" viewBox="0 0 85 111" id="red-1" xmlns="http://www.w3.org/2000/svg"><path d="M0 0l39.123 68.356 45.361 8.959-46.813-41.928L0 0z" fill="#F39436"/><path d="M0 0l19.298 110.5 20.485-42.144L20.22 34.947 0 0z" fill="#E95039"/><path d="M84.62 77.367L19.299 110.5l20.485-42.364 44.838 9.231z" fill="#CD542C"/></svg><svg fill="none" viewBox="0 0 65 83" id="red-2" xmlns="http://www.w3.org/2000/svg"><path d="M38.145 36.635L0 0l45.433 83-7.288-46.365z" fill="#F39436"/><path d="M45.433 83l19.225-67.202-26.513 20.837L45.433 83z" fill="#E95039"/><path d="M0 0l64.658 15.798-26.513 20.837L0 0z" fill="#CD542C"/></svg><svg fill="none" viewBox="0 0 60 61" id="rub" xmlns="http://www.w3.org/2000/svg"><circle cx="30" cy="30.322" r="30" fill="#fff"/><path d="M19.976 21.762v8.321h-1.732c-.959 0-1.904.013-2.1.013l-.368.013v3.675h4.2v3.412h-4.2v3.675h4.2v6.171h3.675V40.873h17.981v-3.675h-17.98V33.798l6.274-.052c6.982-.053 6.878-.04 8.912-1.024 2.14-1.024 3.977-2.862 5.027-5.027 1.838-3.794 1.037-8.085-2.1-11.21-1.404-1.416-2.966-2.31-4.843-2.795-.906-.237-1.523-.25-8.965-.25h-7.98v8.322zm17.129-4.28c1.68.63 2.992 1.904 3.623 3.544.407 1.037.498 3.347.183 4.437-.656 2.258-2.034 3.636-4.33 4.332-.71.223-1.379.249-6.826.249h-6.038l-.04-6.47-.026-6.472 6.327.04c6.221.039 6.353.039 7.127.34z" fill="#0D5DA2"/></svg><svg fill="none" viewBox="0 0 63 67" id="team" xmlns="http://www.w3.org/2000/svg"><path d="M31.745.518c-6.536.886-10.049 4.43-10.986 11.08-.119.899-.238 2.895-.277 5.17-.066 3.397-.04 3.834.21 5.288.727 4.033 2.338 7.166 5.098 9.916 2.773 2.764 6.642 4.694 9.454 4.694 2.773 0 6.748-1.93 9.455-4.588 3.037-2.988 4.727-6.505 5.334-11.08.106-.806.132-2.234.08-4.429-.159-5.91-.713-8.488-2.417-11.066-1.584-2.38-3.988-3.94-7.183-4.668C38.11.306 34.307.161 31.745.518zm5.269 5.804c.831.08 3.103.569 3.103.675 0 .132-.951 2.512-1.043 2.591-.053.066-.648-.013-1.334-.159-1.598-.357-3.631-.357-5.084 0-.58.133-1.096.212-1.135.159-.053-.053-.278-.595-.515-1.216-.238-.622-.45-1.19-.489-1.27-.026-.079.08-.185.25-.224.173-.027.754-.16 1.295-.291 1.11-.251 2.997-.437 3.697-.384.251.027.819.08 1.255.12zm.99 7.021c2.192.397 4.054 1.375 6.51 3.424.713.609 1.135.86 1.386.86.489 0 1.36-.661 1.677-1.256.145-.252.317-.463.383-.463.185 0-.013 4.627-.25 5.937-.885 4.958-4.015 9.241-8.346 11.436-2.47 1.23-4.067 1.455-6.114.807-3.684-1.164-7.249-4.31-8.979-7.933-1.201-2.526-1.888-6.347-1.637-9.136l.092-.966.357.503c.502.687 1.07 1.07 1.61 1.07.344 0 .661-.198 1.559-.938a30.147 30.147 0 011.849-1.441c2.799-1.904 6.206-2.552 9.903-1.904z" fill="#fff"/><path d="M25.578 35.317c-2.588 1.375-3.552 1.917-3.552 1.983 0 .053.462.357 1.017.688 1.281.754 3.975 3.332 4.912 4.694.925 1.335 1.796 3.226 2.219 4.786.33 1.216.356 1.467.356 4.27 0 2.817-.026 3.041-.357 4.297-.435 1.614-1.544 3.914-2.482 5.157-.383.502-1.162 1.375-1.716 1.944L24.97 64.14l.541.08c4.094.595 10.775.74 16.19.33 7.631-.555 13.56-2.195 17.627-4.852 1.228-.82 2.813-2.42 3.288-3.345l.383-.74-.357-1.812c-.898-4.522-2.31-8.25-3.882-10.194-.356-.45-1.03-1.058-1.545-1.414-1.267-.834-4.687-2.777-9.203-5.223-2.998-1.626-3.843-2.023-4.094-1.957-.171.053-.66.357-1.095.661-1.096.78-2.496 1.455-3.975 1.93-.845.278-1.307.503-1.44.688-.092.159-.607 1.441-1.135 2.843l-.964 2.552-.436-1.164c-1.294-3.45-1.663-4.284-1.928-4.469-.158-.106-.831-.357-1.505-.582-1.452-.476-2.126-.806-3.605-1.785-.607-.41-1.214-.74-1.333-.74-.12 0-.542.172-.925.37z" fill="#fff"/><path d="M12.585 37.195C3.421 38.623-2.177 47.85.807 56.565c.964 2.803 3.169 5.672 5.625 7.338 1.228.82 3.13 1.679 4.595 2.075 1.162.318 1.532.344 3.605.344 2.086 0 2.443-.026 3.631-.344 2.43-.66 4.991-2.128 6.734-3.86 1.73-1.746 3.196-4.31 3.856-6.744.317-1.19.343-1.546.343-3.635 0-2.076-.026-2.446-.343-3.61a14.782 14.782 0 00-4.054-6.888c-2.112-2.036-4.357-3.24-7.196-3.861-1.123-.251-3.935-.344-5.018-.185zm4.807 3.715c3.908.992 7.038 4.112 8.08 8.052.423 1.573.423 3.966 0 5.527-.554 2.089-1.333 3.477-2.838 5.024-1.532 1.587-3.13 2.512-5.282 3.094-1.386.37-3.948.396-5.229.053-4.199-1.111-7.236-4.1-8.332-8.211-.396-1.48-.396-3.927 0-5.42 1.611-6.056 7.619-9.653 13.6-8.119z" fill="#fff"/><path d="M16.547 50.35c-2.245 2.221-4.133 4.033-4.186 4.033-.04 0-.898-.86-1.902-1.904l-1.822-1.917-1.188 1.137c-.66.634-1.202 1.19-1.202 1.242 0 .186 5.942 6.334 6.114 6.334.053-.014 2.495-2.38 5.44-5.289l5.348-5.275-1.189-1.19c-.647-.661-1.214-1.203-1.254-1.19-.04 0-1.901 1.811-4.16 4.02z" fill="#fff"/></svg><svg fill="none" viewBox="0 0 20 20" id="time" xmlns="http://www.w3.org/2000/svg"><path d="M10 18c4.4 0 8-3.6 8-8s-3.6-8-8-8-8 3.6-8 8 3.6 8 8 8zm0-18c5.5 0 10 4.5 10 10s-4.5 10-10 10S0 15.5 0 10 4.5 0 10 0zm5 9.5V11H9V5h1.5v4.5H15z" fill="#EB5F31"/></svg></svg>
