<svg width="80" height="68" viewBox="0 0 80 68" fill="none" xmlns="http://www.w3.org/2000/svg">
<path d="M52.7551 0.257032C49.442 1.07126 47.7574 2.99451 47.7434 5.9566C47.7434 6.61641 47.8417 7.00948 48.1646 7.7114C48.4313 8.28697 48.5857 8.82043 48.5857 9.22754C48.5857 10.126 49.1472 11.221 50.0317 12.0773C51.3653 13.3689 53.0499 13.9585 54.7064 13.6917C56.8262 13.3689 57.9072 12.0212 59.0302 8.32908C59.311 7.40255 59.5637 6.6164 59.6058 6.58833C59.6339 6.54621 60.3218 6.46198 61.1079 6.39179C62.7504 6.26545 63.3962 6.08295 63.8594 5.67584C64.2385 5.32488 64.2525 5.00199 63.9015 4.67911C63.691 4.48258 63.3119 4.44046 61.866 4.41238L60.0971 4.38431L59.7462 3.96316C59.5637 3.7245 59.4093 3.48585 59.3952 3.4297C59.3952 3.37355 59.1706 2.85413 58.9039 2.29259C58.4968 1.42222 58.3002 1.18356 57.7387 0.846642C56.3068 -0.0377731 54.6924 -0.220272 52.7551 0.257032Z" fill="white"/>
<path d="M0.251621 11.1649C-0.155491 11.2491 -0.0431844 11.8387 0.406043 12.0072C1.06585 12.2599 4.74389 12.5266 12.9984 12.9477C16.8169 13.1443 19.6807 13.3268 24.7205 13.7198C27.2333 13.9164 31.7958 14.1831 32.8627 14.1972C34.2525 14.2112 34.5192 14.0989 34.8421 13.3268C34.9965 12.9618 35.2913 12.4564 35.4738 12.2037C35.6704 11.951 35.8108 11.6141 35.7827 11.4316L35.7406 11.1228H18.1224C8.42194 11.1228 0.377966 11.1368 0.251621 11.1649Z" fill="white"/>
<path d="M62.7786 12.6248C62.6943 13.1162 62.5961 14.5621 62.554 15.8396L62.4838 18.17L63.3822 18.2542C63.8736 18.2963 64.4913 18.3104 64.758 18.2823C65.0107 18.2402 66.6391 18.0156 68.3799 17.7769C71.735 17.3136 73.0125 17.2996 73.6443 17.7067C74.0935 18.0015 74.3883 18.4648 74.5006 19.0263C74.6269 19.658 74.2339 19.63 73.546 18.9561C72.83 18.2542 73.1389 18.2542 66.2741 19.1246C57.6826 20.2196 58.6092 20.2757 56.3771 18.5911C53.2886 16.2467 52.4323 15.629 50.6214 14.4077C48.2629 12.8073 47.5329 12.5406 45.6377 12.5406C44.4024 12.5266 44.2199 12.5687 43.3916 12.9758C41.7912 13.776 41.1735 14.506 39.152 18.0015C36.7655 22.1148 35.9794 23.4344 34.7299 25.512C33.9999 26.7053 33.2559 27.9126 33.0734 28.1793C32.905 28.4461 32.3855 29.2322 31.9363 29.9341C30.9396 31.4783 30.6307 32.3206 30.6167 33.5139C30.6167 35.9846 31.7257 37.6833 35.2494 40.519C36.1338 41.235 37.5938 42.5265 38.4782 43.3969C39.3626 44.2532 40.3453 45.1517 40.6541 45.3763C41.8614 46.2607 42.802 47.1451 42.9705 47.5663C43.1389 47.9453 43.1108 48.184 42.8581 49.293C42.6897 49.9949 42.4931 51.0759 42.423 51.6936C42.2685 52.9991 42.086 53.8414 41.7912 54.6978C41.6508 55.0908 41.5385 56.0595 41.4964 57.5054C41.4403 58.7127 41.2858 60.5518 41.1174 61.5906C40.6401 64.7633 40.8507 65.5915 42.2405 65.9284C42.6055 66.0267 43.1249 66.1531 43.3916 66.2233C43.6583 66.2794 44.7954 66.4759 45.9185 66.6304C47.0416 66.7988 48.6419 67.0375 49.4702 67.1498C51.2952 67.4306 52.4744 67.3604 52.7411 66.9954C53.0079 66.6304 52.9798 65.8302 52.685 65.2546C52.4183 64.7211 51.576 64.2298 49.9054 63.6402C49.3579 63.4437 48.5296 63.0646 48.0804 62.8119L47.2522 62.3487L47.21 61.6046C47.182 61.1835 47.3223 60.0183 47.5189 59.0075C47.7154 57.9968 47.9962 56.3122 48.1646 55.2733C48.5998 52.4657 48.9929 50.5705 49.4281 49.2228C50.1581 47.0188 50.3266 45.2078 49.9194 44.2111C49.7931 43.9304 49.2737 43.2425 48.7402 42.709C48.2208 42.1615 47.0697 40.8981 46.1993 39.9013C45.3289 38.8906 44.4445 37.8798 44.2479 37.6552C42.9564 36.1952 42.2685 35.2968 42.1843 34.9879C42.0299 34.3562 42.2685 33.6683 42.9564 32.7839C43.3214 32.2926 44.4024 30.8185 45.357 29.513C46.3116 28.1934 47.7435 26.2982 48.5296 25.3015C49.3298 24.2907 50.1721 23.2238 50.4108 22.9009L50.86 22.3394L52.5727 23.1957C55.3242 24.5715 56.3911 24.9505 57.6125 24.9505C58.188 24.9505 59.283 24.8242 60.0271 24.6697C60.7711 24.5153 61.5713 24.389 61.7959 24.389C62.2732 24.389 62.2592 24.3749 62.203 26.2982C62.189 27.0141 62.217 27.7722 62.2732 28.0109L62.3574 28.432L65.1932 28.5162C66.7514 28.5584 69.3906 28.6286 71.0472 28.6707C72.7037 28.7128 75.02 28.8111 76.1712 28.9093C78.4594 29.0778 79.2456 29.0076 79.4 28.6286C79.4561 28.5022 79.5544 26.0876 79.6246 23.2659C79.6948 20.4442 79.8211 17.061 79.9054 15.7554C80.0317 13.9585 80.0317 13.2285 79.9054 12.7652L79.7369 12.1756H77.7435C76.6485 12.1756 73.3775 12.0773 70.4856 11.965C67.5937 11.8527 64.7018 11.7545 64.0841 11.7545H62.933L62.7786 12.6248Z" fill="white"/>
<path d="M3.46638 19.5176C3.326 19.6159 3.22773 19.8265 3.26985 19.9809C3.34004 20.388 4.14022 20.5986 5.34752 20.5003C5.92309 20.4582 7.66385 20.5284 9.20807 20.6547C10.7523 20.767 15.8763 21.0899 20.5791 21.3707C25.296 21.6374 29.4093 21.8901 29.7321 21.9322C30.0691 21.9603 30.42 21.9603 30.5323 21.9182C30.799 21.8199 31.88 20.1213 31.88 19.8265C31.88 19.7001 31.7958 19.5878 31.7115 19.5457C31.6133 19.5176 25.282 19.4615 17.6311 19.4053C5.97925 19.3351 3.691 19.3492 3.46638 19.5176Z" fill="white"/>
<path d="M9.10978 26.9019C8.21132 27.0002 8.01479 27.1125 8.30959 27.3932C8.50613 27.5898 8.98343 27.6319 19.3859 28.1092C21.8145 28.2215 24.5099 28.3619 25.3802 28.404C26.8402 28.4882 26.9666 28.4742 27.3737 28.1934C27.8931 27.8284 28.1177 27.4353 28.0054 27.1405C27.9352 26.958 26.8964 26.93 19.4139 26.958C14.7251 26.9721 10.668 26.944 10.4013 26.9019C10.1346 26.8598 9.54497 26.8598 9.10978 26.9019Z" fill="white"/>
<path d="M28.7635 35.8021C28.5669 35.9706 28.1037 36.6725 27.7527 37.3744C26.6437 39.4802 26.0962 40.2804 25.7733 40.1961C25.6189 40.1681 24.7064 39.8452 23.7378 39.4942C22.7691 39.1433 21.1266 38.6098 20.0878 38.2869C19.0489 37.964 17.7153 37.5569 17.1397 37.3744C16.4378 37.1638 15.5394 37.0235 14.4724 36.9533C13.588 36.9112 12.479 36.7708 12.0157 36.6585C9.61518 36.0969 9.19403 36.5602 8.66057 40.3927C8.18327 43.7619 7.95865 46.4993 8.07096 47.454C8.15519 48.1418 8.21134 48.2261 8.66057 48.4366C8.9273 48.577 9.25018 48.6753 9.36249 48.6753C10.1346 48.6753 10.8927 47.5803 11.6507 45.3763C12.2263 43.7198 12.6475 42.9196 13.0125 42.7511C13.223 42.6528 13.5038 42.709 14.1355 42.9617C14.5848 43.1582 15.2165 43.3688 15.5253 43.425C16.8449 43.6636 22.6568 45.8957 25.0012 47.0468C27.4298 48.2541 28.4546 48.4226 29.5216 47.7909C30.5464 47.1872 31.2062 46.2888 32.6521 43.5092C33.8032 41.3192 33.8594 41.5719 31.894 39.8171C30.3358 38.4273 29.5777 37.3463 29.4373 36.3356C29.3812 35.9425 29.2969 35.6056 29.2408 35.5635C29.1706 35.5214 28.96 35.6337 28.7635 35.8021Z" fill="white"/>
</svg>
