<svg width="40" height="40" viewBox="0 0 40 40" fill="none" xmlns="http://www.w3.org/2000/svg">
<path d="M18.1053 0.0866062C16.5569 0.235187 14.5785 0.680928 13.1396 1.20487C12.0213 1.61933 9.99594 2.63593 9.03408 3.26154C6.05465 5.22436 3.63045 7.96919 2.06644 11.1441C1.0733 13.1773 0.518076 14.9212 0.181816 17.0873C-0.0606052 18.6513 -0.0606052 21.3883 0.181816 22.9524C0.705757 26.315 2.0117 29.4039 4.04491 32.1252C4.74089 33.0558 6.40655 34.7762 7.35278 35.5426C8.98716 36.872 11.2784 38.1701 13.1865 38.8426C15.4778 39.6559 17.4875 40 19.9821 40C21.9606 40 23.1023 39.8592 24.8774 39.4135C26.4102 39.0225 27.3251 38.6784 28.8578 37.9277C31.0005 36.8798 32.6193 35.6912 34.3319 33.9238C35.935 32.2738 36.9125 30.8897 37.9291 28.8174C38.8362 26.9797 39.3992 25.2436 39.7198 23.3043C40.3924 19.2691 39.8059 15.0932 38.0542 11.4569C37.7179 10.7609 37.4442 10.2917 37.3035 10.1823C36.4824 9.53319 35.3094 10.0806 35.3094 11.1128C35.3094 11.3865 35.411 11.6837 35.7316 12.364C36.9672 14.9681 37.452 17.1108 37.452 19.9416C37.4599 21.6386 37.3817 22.3815 37.061 23.836C35.4736 30.9601 29.6242 36.3246 22.3281 37.3412C21.0378 37.5211 18.8247 37.5054 17.4953 37.3021C12.4905 36.567 8.11914 33.7674 5.32739 29.5134C4.28733 27.9181 3.33328 25.6503 2.93446 23.8126C2.39488 21.2945 2.4027 18.4402 2.98138 16.0316C3.95107 11.9418 6.24233 8.45403 9.62058 5.9438C11.9197 4.23122 14.5707 3.14423 17.5579 2.68285C18.7856 2.49517 21.2411 2.49517 22.4845 2.69067C25.1355 3.09731 27.5206 4.01226 29.7415 5.48242C30.6643 6.09238 30.9458 6.1784 31.4384 5.9829C32.2752 5.6701 32.5254 4.6926 31.9389 4.03572C31.6887 3.74638 30.6252 3.03475 29.6398 2.49517C26.1286 0.563628 22.0231 -0.288755 18.1053 0.0866062Z" fill="currentColor"/>
<path d="M33.3778 6.49121C32.9165 6.76491 32.674 7.33577 32.807 7.82843C32.9165 8.21943 33.3622 8.79029 33.6906 8.94669C34.6682 9.40807 35.7317 8.56351 35.458 7.54691C35.3563 7.17937 34.9184 6.61633 34.6056 6.45211C34.285 6.28789 33.6828 6.30353 33.3778 6.49121Z" fill="currentColor"/>
<path d="M17.0887 10.6984C16.9401 10.7844 16.7368 10.9877 16.6429 11.1519L16.4631 11.4569V15.6563V19.8634H15.2666C14.1796 19.8634 14.0389 19.8791 13.7261 20.0355C13.249 20.2779 13.0066 20.708 13.0457 21.2163C13.0848 21.6386 13.2569 21.9279 13.6479 22.186C13.8903 22.358 13.9841 22.3658 15.1806 22.3658H16.4631V23.1087V23.8516H15.2666C14.1796 23.8516 14.0389 23.8673 13.7261 24.0237C13.249 24.2661 13.0066 24.6962 13.0457 25.2045C13.0848 25.6268 13.2569 25.9161 13.6479 26.1742C13.8903 26.3462 13.9841 26.354 15.1806 26.354H16.4631V27.4567C16.4631 28.7157 16.5413 28.9816 17.0026 29.2944C17.5579 29.6697 18.3242 29.5055 18.7622 28.9112C18.9107 28.7157 18.9264 28.5593 18.9498 27.5192L18.9733 26.354H21.8823C24.4708 26.3462 24.8148 26.3306 25.0416 26.2133C25.4483 25.9943 25.636 25.6815 25.6751 25.1889C25.7063 24.704 25.5421 24.3678 25.1198 24.055C24.9009 23.8986 24.7992 23.8907 21.9293 23.8673L18.9655 23.8438V23.1087V22.3658H20.3574C21.4679 22.3658 21.8667 22.3346 22.3906 22.2094C24.0719 21.8028 25.503 20.6767 26.2694 19.144C26.7699 18.1274 26.895 17.5956 26.895 16.4617C26.895 15.3278 26.7777 14.8039 26.2694 13.7638C25.9566 13.1382 25.7924 12.9192 25.1902 12.3171C24.3847 11.5195 23.8764 11.191 22.8989 10.8391L22.2108 10.5967L19.7866 10.5732C17.5344 10.5498 17.3467 10.5654 17.0887 10.6984ZM22.5001 13.3963C25.2762 14.7648 24.9634 18.7921 22.0075 19.7148C21.6243 19.8321 21.288 19.8634 20.248 19.8634H18.9655V16.4539V13.0444L20.4356 13.0756L21.9058 13.0991L22.5001 13.3963Z" fill="currentColor"/>
</svg>
