<svg width="340" height="258" viewBox="0 0 340 258" fill="none" xmlns="http://www.w3.org/2000/svg">
<path d="M200 34L150 55L162 102L211 80L200 34Z" fill="#F5AD0E"/>
<path d="M154 91L162 102L150 55L143 48L154 91Z" fill="#9CC886"/>
<path d="M200 34L150 55L143 48L186 30L200 34Z" fill="#005444"/>
<path d="M200 34L184 43L205 53L200 34Z" fill="#B0BF5B"/>
<path d="M200 34L168 53L165 67L154 73L150 55L200 34Z" fill="#009076"/>
<path d="M162 102L165 67L154 73L162 102Z" fill="#59A665"/>
<path d="M52 253L59 257L64 242L52 245V253Z" fill="#1D2144"/>
<path d="M49 246L52 239L48 230L49 246Z" fill="#87133E"/>
<path d="M39 246L45 244L42 242L39 246ZM30 242L29 237L21 242H30Z" fill="#1D2144"/>
<path d="M8 252L0 254L6 249L8 252Z" fill="#392256"/>
<path d="M38 222L30 232L31 225L38 222Z" fill="#4F3653"/>
<path d="M8 220L6 228L1 223L8 220Z" fill="#30306D"/>
<path d="M12 194L4 196L8 192L12 194Z" fill="#32347F"/>
<path d="M56 167L52 173L42 174L56 167Z" fill="#87133E"/>
<path d="M69 178L72 172L64 174L69 178Z" fill="#37338A"/>
<path d="M56 194L55 203L50 199L56 194Z" fill="#392256"/>
<path d="M77 191L83 184L64 189L77 191Z" fill="#FAC531"/>
<path d="M76 199L69 201L70 194L76 199Z" fill="#30306D"/>
<path d="M91 184L106 173L91 178V184Z" fill="#4F3653"/>
<path d="M83 167L76 169L79 164L83 167Z" fill="#30306D"/>
<path d="M67 133L56 142L46 136L67 133Z" fill="#EB5F31"/>
<path d="M52 210L53 219L46 224L52 210Z" fill="#1D2144"/>
<path d="M83 124L76 126L79 122L83 124Z" fill="#FED804"/>
<path d="M32 111L18 110V102L32 111Z" fill="#E68C62"/>
<path d="M129 84H92L120 76L129 84Z" fill="#EB5F31"/>
<path d="M125 108L109 112L119 104L125 108Z" fill="#F5AD0E"/>
<path d="M131 106L125 104L130 103L131 106Z" fill="#F8B46A"/>
<path d="M157 106L150 108V106H157Z" fill="#FDE738"/>
<path d="M119 153L118 161L112 157L119 153Z" fill="#30306D"/>
<path d="M136 147L125 158L131 142L136 147Z" fill="#EE761C"/>
<path d="M155 122L125 144L128 131L155 122Z" fill="#FCC009"/>
<path d="M77 217L67 237L72 217H77Z" fill="#341F49"/>
<path d="M56 223L53 237L71 213L56 223Z" fill="#943914"/>
<path d="M63 238L53 237L71 213L63 238Z" fill="#392256"/>
<path d="M73 205L60 220L58 209L73 205Z" fill="#87133E"/>
<path d="M76 215L98 185L78 197L76 215Z" fill="#EC622E"/>
<path d="M78 220L110 195L88 207L78 220Z" fill="#4F3653"/>
<path d="M128 162L87 204L145 170L140 160L128 162Z" fill="#30306D"/>
<path d="M119 164L87 204L128 162L119 164Z" fill="#EB5F30"/>
<path d="M113 196L115 188L131 183L113 196Z" fill="#32347F"/>
<path d="M154 155L140 160H128L136 153L154 155Z" fill="#EC622C"/>
<path d="M190 130L192 136L160 157V154H157L190 130Z" fill="#2F2F70"/>
<path d="M189 127L157 154L136 151L168 116L189 127Z" fill="#EE761C"/>
<path d="M108 60L106 56L100 57L108 60Z" fill="#FAC531"/>
<path d="M67 41L72 45L61 48L67 41Z" fill="#37338A"/>
<path d="M204 77L189 81L180 74L204 77Z" fill="#EE761C"/>
<path d="M216 68L199 74L207 64L216 68Z" fill="#EB5F30"/>
<path d="M174 172L149 157L143 160L149 172L156 195L168 204H175L169 196L174 172Z" fill="#F5AD0E"/>
<path d="M163 165L160 172L169 196L174 172L163 165Z" fill="#F3931B"/>
<path d="M149 157L159 160L172 169L171 170L149 157Z" fill="#005CA8"/>
<path d="M173 175L255 171L198 168L173 175Z" fill="#EA5E0F"/>
<path d="M257 158L255 171L198 168L217 158H257Z" fill="#F8B46A"/>
<path d="M159 160L204 159L217 158L182 173L172 169L159 160Z" fill="#F3931B"/>
<path d="M199 151L163 160L204 159L199 151Z" fill="#EC622C"/>
<path d="M207 159L203 154L212 146L239 156V158L207 159Z" fill="#87133E"/>
<path d="M223 159L222 146L257 158L223 159Z" fill="#FFCB00"/>
<path d="M258 170L266 155L252 148L258 156V170Z" fill="#FDE738"/>
<path d="M178 91L166 108L186 124L185 117L201 97V91H178Z" fill="#EC6334"/>
<path d="M188 101L201 91H178L188 101Z" fill="#EE761C"/>
<path d="M262 150L243 126C243 127 243 130 240 132C235 136 230 134 230 134L262 150Z" fill="#9C5629"/>
<path d="M201 97L222 104L262 150L222 128L201 97Z" fill="#EE761C"/>
<path d="M252 152L243 145L222 128L201 97L188 119L211 144L252 152Z" fill="#2F2F70"/>
<path d="M262 150L243 145L211 144L189 126L188 119L201 97L262 150Z" fill="#FDE738"/>
<path d="M204 90L222 104L201 97V91L204 90Z" fill="#F3931B"/>
<path d="M224 105L222 100L239 93L224 105Z" fill="#005CA8"/>
<path d="M183 90L208 88L217 76L208 75L183 90Z" fill="#EE761C"/>
<path d="M206 73L217 75L222 67L206 73ZM158 37L164 46L151 58L146 48L151 46L148 43L158 37ZM158 32L167 33L177 23L158 32Z" fill="#37338A"/>
<path d="M163 36L165 38L200 17L198 9L163 36Z" fill="#005CA8"/>
<path d="M201 4L212 23L210 6L201 4ZM211 3L230 28L240 32L211 3Z" fill="#37338A"/>
<path d="M225 4L246 37V18L225 4Z" fill="#0087CE"/>
<path d="M216 5L225 4L246 37L216 5Z" fill="#591C42"/>
<path d="M248 19L265 28L261 34L248 19Z" fill="#F49618"/>
<path d="M272 40L265 28L260 34L269 56L272 40Z" fill="#E6341F"/>
<path d="M264 68L266 76L259 84L257 74L246 77L253 68H264Z" fill="#923451"/>
<path d="M273 58L289 71L283 59L273 58Z" fill="white"/>
<path d="M290 73L287 81L305 88L290 73Z" fill="#005CA8"/>
<path d="M283 59L289 71L269 79L265 78L264 68L273 58L283 59ZM334 63L326 71L320 97L334 63Z" fill="#2F2F70"/>
<path d="M161 33L164 43L165 38L163 36L208 8L211 22L165 45L162 57L157 58L155 54L151 58L147 64L145 61L149 54L140 64V52L142 50L141 48L148 43L157 42L161 33Z" fill="#408BCA"/>
<path d="M144 62L146 67L145 71L144 69V62Z" fill="#408BCA"/>
<path d="M157 59L161 58L160 67L159 68L157 59ZM135 3V5L128 3H135Z" fill="#005CA8"/>
<path d="M107 19V23L93 20L107 19Z" fill="#50A9DF"/>
<path d="M175 0L171 3L164 0H175Z" fill="#87133E"/>
<path d="M70 13L64 16V12L70 13Z" fill="#005CA8"/>
<path d="M211 57L220 54L209 51L211 57Z" fill="#32347F"/>
<path d="M229 42L223 46L219 32L229 42Z" fill="#87133E"/>
<path d="M210 6L246 37L240 38L234 36L238 40L229 42L226 33L212 23L210 6ZM248 19L246 66H263L269 56L260 34L248 19Z" fill="#005CA8"/>
<path d="M218 101L242 90L243 93L258 81L257 74L246 77L250 66L247 39H228L221 51L244 65L222 56L218 62L219 66L221 64L241 70L222 67L208 88V90L206 92L218 101Z" fill="#EB5F31"/>
<path d="M296 63L307 51V43L310 39V29L307 27L293 46L296 63Z" fill="#FDE738"/>
<path d="M307 51H303V56L307 51Z" fill="#F8B46B"/>
<path d="M304 45H307V42H302L304 45Z" fill="#0087CE"/>
<path d="M295 16L307 27L305 28L295 16Z" fill="#FCD000"/>
<path d="M284 18L295 16L305 28L292 47L284 18Z" fill="#F49618"/>
<path d="M296 63L287 56L279 58L285 54H282L270 57L276 50L269 56L272 40H275L274 29L284 18L289 37L291 32L294 31L298 33L297 36L294 37L291 41L293 46L296 63Z" fill="#E8491E"/>
<path d="M328 36H326V43H328V36Z" fill="#408BCA"/>
<path d="M331 32H334L332 42H329L331 32Z" fill="#0087CE"/>
<path d="M335 36L337 37L335 46L333 45L335 36Z" fill="#005CA8"/>
<path d="M338 42L340 43L339 48H337L338 42Z" fill="#37338A"/>
<path d="M326 44L336 50L330 53L324 54L326 44Z" fill="#2F2F70"/>
<path d="M338 51L330 53L324 54L320 56L324 60L334 62L338 51Z" fill="#37338A"/>
<path d="M322 44V50L324 51V54L320 56V55L319 48L321 44H322Z" fill="#37338A"/>
<path d="M333 62L332 65L320 97L317 106L313 107V111L307 113L305 94L307 93L310 101L308 90L316 81L324 60L333 62Z" fill="#005CA8"/>
<path d="M287 72L290 74L303 87L305 97L307 107H303V110L287 97L292 99L285 93V88L282 93L269 79L287 72Z" fill="#408BCA"/>
<path d="M244 65L221 51L228 39H247L250 66L249 69L244 65Z" fill="#A7646F"/>
<path d="M246 77L216 99L218 100L242 90L243 92L258 81L257 74L246 77Z" fill="#E6341F"/>
<path d="M157 42L148 43L141 48L142 50L157 42Z" fill="#87133E"/>
<path d="M165 45L161 33L157 42L145 61L147 64L155 54L157 58L162 57L165 45Z" fill="#37338A"/>
<path d="M140 52L142 50L157 42L148 54L140 64V52Z" fill="#50A9DF"/>
<path d="M166 60L181 59L178 91L162 97L165 67L166 60Z" fill="#76AE64"/>
<path d="M184 43L205 53L206 57L166 60L168 53L184 43Z" fill="#98B962"/>
<path d="M206 57L209 71L178 88L181 59L206 57Z" fill="#B0C479"/>
<path d="M162 102L211 79L209 71L160 96L162 102Z" fill="#04A663"/>
<path d="M188 53L193 71L173 81L168 62L188 53Z" fill="#E9E593"/>
<path d="M143 160L145 159L151 172L158 194L168 204L156 195L149 172L143 160Z" fill="#EE761C"/>
<path d="M169 196L170 179L161 175L169 196Z" fill="#FFCB00"/>
<path d="M175 204H168L158 194L156 188L169 196L175 204Z" fill="#FDE738"/>
<path d="M149 157L163 165L160 172H151L148 166L145 159L149 157Z" fill="#E6341F"/>
</svg>
